<svg xmlns="http://www.w3.org/2000/svg" data-name="Layer 1" viewBox="0 0 110 110"><path fill="#1b171b" d="M51.58 99.85a1.13 1.13 0 0 1-1-.6l-4.75-9-7.31 7.14a1.16 1.16 0 0 1-1.14.27 1.14 1.14 0 0 1-.76-.89L34.9 86.65l-9.16 4.53a1.15 1.15 0 0 1-1.17-.1 1.13 1.13 0 0 1-.45-1.08l1.69-11.61a1.13 1.13 0 0 1 2.24.33l-1.39 9.48 8.59-4.2a1.18 1.18 0 0 1 1 0 1.11 1.11 0 0 1 .6.81l1.61 9.45 6.86-6.69a1.11 1.11 0 0 1 1-.31 1.13 1.13 0 0 1 .83.59l4.45 8.49 4.4-8.53a1.12 1.12 0 0 1 .82-.59 1.1 1.1 0 0 1 1 .31l6.86 6.69 1.62-9.45a1.11 1.11 0 0 1 .6-.81 1.15 1.15 0 0 1 1 0l8.6 4.24-1.38-9.48a1.07 1.07 0 0 1 .32-1 1.1 1.1 0 0 1 1-.32l9.48 1.38-4.25-8.59a1.12 1.12 0 0 1 0-1 1.11 1.11 0 0 1 .82-.6L91.9 67l-6.69-6.86a1.1 1.1 0 0 1-.31-1 1.12 1.12 0 0 1 .59-.82L94 53.9l-8.49-4.45a1.14 1.14 0 0 1-.59-.82 1.12 1.12 0 0 1 .31-1l6.67-6.83-9.44-1.61a1.11 1.11 0 0 1-.82-.6 1.12 1.12 0 0 1 0-1L85.88 29l-9.48 1.37a1.13 1.13 0 0 1-1-.32 1.08 1.08 0 0 1-.32-1l1.38-9.48-8.59 4.24a1.12 1.12 0 0 1-1 0 1.15 1.15 0 0 1-.6-.82l-1.62-9.45-6.86 6.7a1.13 1.13 0 0 1-1.57-1.62l8.4-8.19a1.1 1.1 0 0 1 1.13-.27 1.13 1.13 0 0 1 .77.88l1.72 10.08 9.16-4.53a1.11 1.11 0 0 1 1.16.1 1.12 1.12 0 0 1 .46 1.07l-1.45 10.16 10.11-1.48a1.13 1.13 0 0 1 1.08.45 1.17 1.17 0 0 1 .1 1.17l-4.53 9.16 10.07 1.72a1.14 1.14 0 0 1 .89.76 1.16 1.16 0 0 1-.29 1.14l-7.14 7.31 9.05 4.75a1.13 1.13 0 0 1 .6 1 1.12 1.12 0 0 1-.6 1l-9.05 4.75L95 67a1.13 1.13 0 0 1-.62 1.9l-10.05 1.69 4.53 9.16a1.15 1.15 0 0 1-.1 1.16 1.14 1.14 0 0 1-1.08.46l-10.11-1.48L79.05 90a1.13 1.13 0 0 1-1.62 1.18l-9.16-4.53-1.72 10.07a1.13 1.13 0 0 1-1.9.62l-7.32-7.14-4.75 9a1.12 1.12 0 0 1-1 .65Z"/><path fill="#fff" d="M73.65 50.44a.51.51 0 0 1-.06-.88A5.59 5.59 0 0 0 75.53 45c0-2.84-2.21-5.18-4.58-5.18H53.32A30.84 30.84 0 0 0 54.3 29c-.59-6.48-3.65-10.85-7.29-11s-4.95.66-4.95.66 1.74 8.54.8 11.44c-2.62 8.12-12.24 15.44-12.24 19.59v25.16a2.48 2.48 0 0 0 2.48 2.47h33.09a5.74 5.74 0 0 0 4.48-8.48 5.74 5.74 0 0 0 4.54-5.61 5.67 5.67 0 0 0-1.57-3.92A5.74 5.74 0 0 0 76 54.68a4.57 4.57 0 0 0-2.35-4.24Z"/><path fill="#1b171b" d="M65.84 78.45H33.1a3.61 3.61 0 0 1-3.61-3.6V49.71c0-2.39 2.23-5.13 5.05-8.61s5.94-7.3 7.25-11.33c.69-2.14-.37-8.57-.84-10.87a1.12 1.12 0 0 1 .52-1.18c.27-.17 1.78-1 5.59-.83 4.37.18 7.73 5 8.36 12a32.26 32.26 0 0 1-.66 9.72H71c3 0 5.71 3 5.71 6.31a7 7 0 0 1-1.76 4.94 5.88 5.88 0 0 1 2.2 4.79 6.88 6.88 0 0 1-1.91 4.74 6.87 6.87 0 0 1-3 10.09 7 7 0 0 1 .32 2.08 6.84 6.84 0 0 1-6.21 6.83 3 3 0 0 1-.51.06Zm-22.49-59c.45 2.44 1.42 8.47.58 11.05-1.43 4.39-4.72 8.5-7.63 12.03-2.34 2.88-4.55 5.59-4.55 7.18v25.14a1.34 1.34 0 0 0 1.35 1.34H66a4.6 4.6 0 0 0 4.21-4.59 4.71 4.71 0 0 0-.57-2.23 1.12 1.12 0 0 1 0-1 1.14 1.14 0 0 1 .79-.64 4.59 4.59 0 0 0 2.39-7.65 1.13 1.13 0 0 1-.3-.88 1.11 1.11 0 0 1 .45-.8 4.56 4.56 0 0 0 1.87-3.7 3.47 3.47 0 0 0-1.7-3.23 1.64 1.64 0 0 1-.23-2.79A4.4 4.4 0 0 0 74.4 45a3.93 3.93 0 0 0-3.4-4.1H53.32a1.12 1.12 0 0 1-.9-.45 1.1 1.1 0 0 1-.19-1 29.71 29.71 0 0 0 .94-10.33c-.51-5.66-3.12-9.86-6.2-10a13.42 13.42 0 0 0-3.62.29Zm30.81 30Z"/><path fill="#fff" d="M18.66 77.32a5.07 5.07 0 0 1-5.06-5.06V51.11A5.07 5.07 0 0 1 18.66 46a5.08 5.08 0 0 1 5.06 5.07v21.19a5.08 5.08 0 0 1-5.06 5.06Z"/><path fill="#1b171b" d="M18.66 78.45a6.19 6.19 0 0 1-6.19-6.19V51.11a6.19 6.19 0 1 1 12.38 0v21.15a6.2 6.2 0 0 1-6.19 6.19Zm0-31.28a4 4 0 0 0-3.94 3.94v21.15a3.94 3.94 0 0 0 7.87 0V51.11a3.94 3.94 0 0 0-3.93-3.94Z"/></svg>